<mxfile host="65bd71144e">
    <diagram id="3HRkgMCfKGj9J2yj029-" name="第 1 页">
        <mxGraphModel dx="1298" dy="785" grid="1" gridSize="10" guides="1" tooltips="1" connect="1" arrows="1" fold="1" page="1" pageScale="1" pageWidth="827" pageHeight="1169" math="0" shadow="0">
            <root>
                <mxCell id="0"/>
                <mxCell id="1" parent="0"/>
                <mxCell id="2" value="学生" style="shape=umlActor;verticalLabelPosition=bottom;verticalAlign=top;html=1;" parent="1" vertex="1">
                    <mxGeometry x="630" y="220" width="30" height="60" as="geometry"/>
                </mxCell>
                <mxCell id="5" value="教师" style="shape=umlActor;verticalLabelPosition=bottom;verticalAlign=top;html=1;" parent="1" vertex="1">
                    <mxGeometry x="100" y="220" width="30" height="60" as="geometry"/>
                </mxCell>
                <mxCell id="14" value="管理员" style="shape=umlActor;verticalLabelPosition=bottom;verticalAlign=top;html=1;" vertex="1" parent="1">
                    <mxGeometry x="630" y="520" width="30" height="60" as="geometry"/>
                </mxCell>
                <mxCell id="16" value="行政人员" style="shape=umlActor;verticalLabelPosition=bottom;verticalAlign=top;html=1;" vertex="1" parent="1">
                    <mxGeometry x="100" y="520" width="30" height="60" as="geometry"/>
                </mxCell>
                <mxCell id="21" value="用例" style="shape=umlFrame;whiteSpace=wrap;html=1;" vertex="1" parent="1">
                    <mxGeometry x="200" y="120" width="360" height="520" as="geometry"/>
                </mxCell>
                <mxCell id="25" value="Object" style="html=1;" vertex="1" parent="1">
                    <mxGeometry x="260" y="200" width="110" height="50" as="geometry"/>
                </mxCell>
            </root>
        </mxGraphModel>
    </diagram>
</mxfile>
